<mxfile>
    <diagram id="Y-GhQWaVOYNz6FTfWHWT" name="Page-1">
        <mxGraphModel dx="621" dy="530" grid="1" gridSize="10" guides="1" tooltips="1" connect="1" arrows="1" fold="1" page="1" pageScale="1" pageWidth="850" pageHeight="1100" math="0" shadow="0">
            <root>
                <mxCell id="0"/>
                <mxCell id="1" parent="0"/>
                <mxCell id="2" value="Author" style="swimlane;childLayout=stackLayout;horizontal=1;startSize=30;horizontalStack=0;rounded=1;fontSize=14;fontStyle=0;strokeWidth=2;resizeParent=0;resizeLast=1;shadow=0;dashed=0;align=center;" vertex="1" parent="1">
                    <mxGeometry x="100" y="120" width="240" height="180" as="geometry"/>
                </mxCell>
                <mxCell id="3" value="Name: String, required&#10;&#10;&#10;&#10;&#10;&#10;&#10;&#10;Articles: [ ref Article ]&#10;" style="align=left;strokeColor=none;fillColor=none;spacingLeft=4;fontSize=12;verticalAlign=top;resizable=0;rotatable=0;part=1;" vertex="1" parent="2">
                    <mxGeometry y="30" width="240" height="150" as="geometry"/>
                </mxCell>
                <mxCell id="4" value="Article" style="swimlane;childLayout=stackLayout;horizontal=1;startSize=30;horizontalStack=0;rounded=1;fontSize=14;fontStyle=0;strokeWidth=2;resizeParent=0;resizeLast=1;shadow=0;dashed=0;align=center;" vertex="1" parent="1">
                    <mxGeometry x="440" y="180" width="280" height="210" as="geometry"/>
                </mxCell>
                <mxCell id="5" value="Title: String, required&#10;Body: String, required&#10;&#10;&#10;&#10;&#10;&#10;&#10;&#10;Author: ref Author&#10;" style="align=left;strokeColor=none;fillColor=none;spacingLeft=4;fontSize=12;verticalAlign=top;resizable=0;rotatable=0;part=1;" vertex="1" parent="4">
                    <mxGeometry y="30" width="280" height="180" as="geometry"/>
                </mxCell>
                <mxCell id="6" value="" style="edgeStyle=entityRelationEdgeStyle;fontSize=12;html=1;endArrow=ERmany;entryX=0;entryY=0.071;entryDx=0;entryDy=0;exitX=0.996;exitY=0.86;exitDx=0;exitDy=0;exitPerimeter=0;entryPerimeter=0;" edge="1" parent="1" source="3" target="4">
                    <mxGeometry width="100" height="100" relative="1" as="geometry">
                        <mxPoint x="370" y="460" as="sourcePoint"/>
                        <mxPoint x="470" y="360" as="targetPoint"/>
                    </mxGeometry>
                </mxCell>
            </root>
        </mxGraphModel>
    </diagram>
</mxfile>